<svg width="107" height="27" viewBox="0 0 107 27" fill="none" xmlns="http://www.w3.org/2000/svg">
<rect width="107" height="27" fill="url(#paint0_linear_100_7929)"/>
<path fill-rule="evenodd" clip-rule="evenodd" d="M17.9673 13.7504C17.9673 11.7373 19.0504 9.92555 20.8228 8.81834C19.6412 7.30848 17.8689 6.40254 15.998 6.3019C14.0287 6.10063 12.0594 7.50975 11.0747 7.50975C9.99163 7.50975 8.41629 6.3019 6.7424 6.40254C4.47773 6.50328 2.5084 7.71113 1.42529 9.62354C-0.839383 13.5491 0.834507 19.3871 3.00073 22.6081C4.08384 24.2186 5.36385 25.9297 7.03774 25.8291C8.71163 25.7283 9.30241 24.8225 11.2717 24.8225C13.241 24.8225 13.8317 25.8291 15.5056 25.8291C17.278 25.8291 18.3611 24.2186 19.4442 22.7087C20.232 21.6015 20.8228 20.3936 21.2166 19.0852C19.3458 18.0786 17.9673 16.0654 17.9673 13.7504Z" fill="black"/>
<path fill-rule="evenodd" clip-rule="evenodd" d="M14.7185 4.18834C15.7032 3.08117 16.1955 1.57135 15.9986 0.0615234C14.5216 0.262838 13.1432 0.866773 12.1585 1.97397C11.1738 3.08117 10.6815 4.49036 10.7799 5.89948C12.3554 6.10086 13.7339 5.3963 14.7185 4.18834Z" fill="black"/>
<path d="M34.4095 1.97565C35.1972 1.97565 35.9849 2.27762 36.4772 2.7809C36.9696 3.28416 37.2649 4.19003 37.1665 4.89469C37.1665 6.8071 36.1818 7.91431 34.4095 7.91431H32.3418V1.875H34.4095V1.97565ZM33.2279 7.20975H34.311C34.9018 7.20975 35.3941 7.00837 35.788 6.60583C36.1818 6.20318 36.3788 5.59925 36.2804 5.09597C36.3788 4.49204 36.1818 3.98875 35.788 3.58614C35.3941 3.18352 34.9018 2.7809 34.311 2.88154H33.2279V7.20975Z" fill="black"/>
<path d="M38.2495 5.69889C38.151 4.89359 38.5448 4.08839 39.2341 3.68575C39.9233 3.28313 40.8095 3.28313 41.4002 3.68575C41.9911 4.08839 42.4833 4.89359 42.3849 5.69889C42.4833 6.50409 42.0896 7.30928 41.4002 7.71194C40.711 8.11459 39.8249 8.11459 39.1356 7.71194C38.5448 7.30928 38.151 6.60473 38.2495 5.69889ZM41.4988 5.69889C41.4988 4.69232 41.1049 4.18903 40.3172 4.18903C39.5295 4.18903 39.1356 4.79295 39.1356 5.69889C39.1356 6.70536 39.5295 7.30929 40.3172 7.30929C41.1049 7.30929 41.4988 6.70536 41.4988 5.69889Z" fill="black"/>
<path fill-rule="evenodd" clip-rule="evenodd" d="M47.9994 8.01484H47.1132L46.1286 4.69321L45.144 8.01484H44.2577L43.0762 3.48535H43.9624L44.7501 6.90763L45.7347 3.48535H46.5224L47.4086 6.90763H47.5071L48.2948 3.48535H49.181L47.9994 8.01484Z" fill="black"/>
<path fill-rule="evenodd" clip-rule="evenodd" d="M50.2617 3.48445H51.1478V4.18903H51.2463C51.4433 3.68575 52.0341 3.38379 52.5264 3.38379C52.9202 3.38379 53.4125 3.48445 53.7079 3.88707C54.0033 4.18903 54.1018 4.69232 54.1018 5.09497V8.01395H53.2156V5.29624C53.2156 4.59168 52.9202 4.18903 52.2309 4.18903C51.9356 4.18903 51.6402 4.28966 51.4433 4.49104C51.2463 4.69232 51.1478 4.99422 51.1478 5.29624V7.91331H50.2617V3.48445Z" fill="black"/>
<path fill-rule="evenodd" clip-rule="evenodd" d="M55.3848 1.67285H56.271V8.01416H55.3848V1.67285Z" fill="black"/>
<path d="M57.4487 5.69889C57.3502 4.89359 57.7441 4.08839 58.4333 3.68575C59.1226 3.28313 60.0088 3.28313 60.5996 3.68575C61.2888 4.08839 61.6827 4.89359 61.5842 5.69889C61.6827 6.50409 61.2888 7.30928 60.5996 7.71194C59.9103 8.11459 59.0241 8.11459 58.3349 7.71194C57.7441 7.30928 57.3502 6.60473 57.4487 5.69889ZM60.7965 5.69889C60.7965 4.69232 60.4027 4.18903 59.6149 4.18903C58.8272 4.18903 58.4333 4.79295 58.4333 5.69889C58.4333 6.70536 58.8272 7.30929 59.6149 7.30929C60.3042 7.30929 60.7965 6.70536 60.7965 5.69889Z" fill="black"/>
<path d="M62.5703 6.70536C62.5703 5.90016 63.1611 5.39688 64.2442 5.39688L65.4258 5.29624V4.89359C65.4258 4.3903 65.1304 4.18903 64.5395 4.18903C64.0473 4.18903 63.7519 4.3903 63.6534 4.69232H62.7672C62.8656 3.88707 63.555 3.38379 64.5395 3.38379C65.6227 3.38379 66.312 3.98776 66.312 4.89359V8.01395H65.4258V7.41003H65.3273C65.0319 7.91331 64.5395 8.11459 63.9488 8.11459C63.555 8.11459 63.1611 8.01395 62.9642 7.81257C62.7672 7.51066 62.5703 7.10801 62.5703 6.70536ZM65.4258 6.30281V6.0008L64.3427 6.10144C63.7519 6.10144 63.4565 6.40345 63.4565 6.70536C63.4565 7.10801 63.8503 7.30928 64.2442 7.30928C64.5395 7.30928 64.835 7.20865 65.0319 7.10801C65.2289 6.90674 65.4258 6.60472 65.4258 6.30281Z" fill="black"/>
<path d="M67.3945 5.6991C67.3945 4.28987 68.0838 3.38399 69.2654 3.38399C69.8562 3.38399 70.3485 3.68595 70.6439 4.18924H70.7423V1.67285H71.6285V8.01416H70.7423V7.30949H70.6439C70.3485 7.81278 69.8562 8.11479 69.2654 8.11479C68.1823 8.11479 67.3945 7.20885 67.3945 5.6991ZM68.3792 5.6991C68.3792 6.70557 68.8715 7.20885 69.5608 7.20885C70.25 7.20885 70.7423 6.60493 70.7423 5.6991C70.7423 4.79316 70.25 4.18924 69.5608 4.18924C68.7731 4.18924 68.3792 4.79316 68.3792 5.6991Z" fill="black"/>
<path d="M75.1732 5.69889C75.0746 4.89359 75.4685 4.08839 76.1578 3.68575C76.8471 3.28313 77.7332 3.28313 78.324 3.68575C79.0132 4.08839 79.4071 4.89359 79.3087 5.69889C79.4071 6.50409 79.0132 7.30928 78.324 7.71194C77.6348 8.11459 76.7485 8.11459 76.0593 7.71194C75.4685 7.30928 75.1732 6.60473 75.1732 5.69889ZM78.521 5.69889C78.521 4.69232 78.1271 4.18903 77.3393 4.18903C76.5517 4.18903 76.1578 4.79295 76.1578 5.69889C76.1578 6.70536 76.5517 7.30929 77.3393 7.30929C78.0287 7.30929 78.521 6.70536 78.521 5.69889Z" fill="black"/>
<path fill-rule="evenodd" clip-rule="evenodd" d="M80.5898 3.48445H81.4761V4.18903H81.5745C81.7715 3.68575 82.3623 3.38379 82.8546 3.38379C83.2484 3.38379 83.7407 3.48445 84.0362 3.88707C84.3315 4.18903 84.43 4.69232 84.43 5.09497V8.01395H83.5438V5.29624C83.5438 4.59168 83.2484 4.18903 82.5592 4.18903C82.2637 4.18903 81.9684 4.28966 81.7715 4.49104C81.5745 4.69232 81.4761 4.99422 81.4761 5.29624V7.91331H80.5898V3.48445Z" fill="black"/>
<path fill-rule="evenodd" clip-rule="evenodd" d="M89.2559 2.37793V3.48513H90.2406V4.29041H89.2559V6.60547C89.2559 7.10876 89.4529 7.31003 89.8467 7.31003C89.9453 7.31003 90.0437 7.31003 90.1421 7.31003V8.01459C89.9453 8.01459 89.8467 8.01459 89.6498 8.01459C88.6651 8.01459 88.2714 7.71268 88.2714 6.80674V4.29041H87.582V3.48513H88.2714V2.37793H89.2559Z" fill="black"/>
<path fill-rule="evenodd" clip-rule="evenodd" d="M91.4199 1.67285H92.306V4.18924H92.4045C92.6015 3.68595 93.1923 3.28333 93.783 3.38399C94.177 3.38399 94.6687 3.48464 94.9648 3.88726C95.2598 4.18924 95.3582 4.69252 95.3582 5.09517V8.01416H94.4721V5.29645C94.4721 4.59189 94.177 4.18924 93.4876 4.18924C93.1923 4.18924 92.8968 4.28987 92.6999 4.49114C92.503 4.69252 92.4045 4.99443 92.4045 5.29645V7.91341H91.5184L91.4199 1.67285Z" fill="black"/>
<path d="M100.383 6.8061C100.186 7.6113 99.2998 8.21522 98.4137 8.11459C97.8226 8.11459 97.2315 7.91331 96.8381 7.41003C96.4437 7.00737 96.247 6.40345 96.3454 5.79953C96.247 5.1956 96.4437 4.59168 96.8381 4.08839C97.2315 3.58509 97.8226 3.38379 98.4137 3.38379C99.6932 3.38379 100.383 4.28966 100.383 5.69889V6.0008H97.2315C97.2315 6.30281 97.3298 6.70536 97.5276 6.90674C97.7242 7.10801 98.1176 7.30928 98.4137 7.30928C98.807 7.41003 99.2998 7.10801 99.4965 6.8061H100.383ZM97.2315 5.29624H99.4965C99.4965 4.99422 99.3981 4.69232 99.2014 4.49104C99.0037 4.28966 98.7087 4.18903 98.4137 4.18903C98.1176 4.18903 97.8226 4.28966 97.6259 4.49104C97.4282 4.69232 97.2315 4.99422 97.2315 5.29624Z" fill="black"/>
<path d="M39.8248 20.4965H35.197L34.1139 23.9187H32.1445L36.477 11.4375H38.5448L42.9755 23.9187H41.0063L39.8248 20.4965ZM35.6892 18.9867H39.4309L37.5601 13.4506H37.4616L35.6892 18.9867Z" fill="black"/>
<path d="M52.5238 19.3888C52.5238 22.2071 51.0468 24.0189 48.7821 24.0189C47.6005 24.1197 46.5174 23.415 46.0251 22.4085V26.938H44.1543V14.8593H45.9266V16.3692C46.5174 15.3626 47.6005 14.7587 48.7821 14.7587C50.9483 14.658 52.5238 16.5704 52.5238 19.3888ZM50.5544 19.3888C50.5544 17.577 49.6683 16.3692 48.1913 16.3692C46.8128 16.3692 45.8282 17.577 45.8282 19.3888C45.8282 21.2006 46.8128 22.4085 48.1913 22.4085C49.6683 22.4085 50.5544 21.2006 50.5544 19.3888Z" fill="black"/>
<path d="M62.2757 19.3888C62.2757 22.2071 60.7987 24.0189 58.534 24.0189C57.3525 24.1197 56.2694 23.415 55.777 22.4085V26.938H53.9062V14.8593H55.6786V16.3692C56.2694 15.3626 57.3525 14.7587 58.534 14.7587C60.7987 14.658 62.2757 16.5704 62.2757 19.3888ZM60.4049 19.3888C60.4049 17.577 59.5187 16.3692 58.0417 16.3692C56.6633 16.3692 55.6786 17.577 55.6786 19.3888C55.6786 21.2006 56.6633 22.4085 58.0417 22.4085C59.5187 22.4085 60.4049 21.2006 60.4049 19.3888Z" fill="black"/>
<path fill-rule="evenodd" clip-rule="evenodd" d="M68.7715 20.395C68.87 21.6028 70.0516 22.408 71.7254 22.408C73.3009 22.408 74.384 21.6028 74.384 20.4956C74.384 19.489 73.6947 18.9857 72.1193 18.5831L70.5439 18.1805C68.2792 17.5766 67.2946 16.57 67.2946 14.8589C67.2946 12.7451 69.1653 11.2354 71.7254 11.2354C74.2856 11.2354 76.0579 12.7451 76.1563 14.8589H74.2856C74.187 13.651 73.2024 12.8457 71.7254 12.8457C70.2484 12.8457 69.2639 13.651 69.2639 14.7583C69.2639 15.6641 69.9531 16.1674 71.5286 16.57L72.907 16.8719C75.3687 17.476 76.4517 18.4824 76.4517 20.2942C76.4517 22.6094 74.5809 24.1191 71.7254 24.1191C68.9684 24.1191 67.1961 22.71 67.0977 20.395H68.7715Z" fill="black"/>
<path fill-rule="evenodd" clip-rule="evenodd" d="M80.195 12.6445V14.7583H81.8689V16.2682H80.195V21.3009C80.195 22.1061 80.4904 22.4082 81.2781 22.4082C81.475 22.4082 81.6719 22.4082 81.8689 22.4082V23.9179C81.5735 24.0186 81.1797 24.0186 80.8842 24.0186C79.1119 24.0186 78.4227 23.314 78.4227 21.6029V16.2682H77.1426V14.7583H78.4227V12.6445H80.195Z" fill="black"/>
<path d="M82.9512 19.3879C82.9512 16.5696 84.6251 14.7578 87.1851 14.7578C89.7452 14.7578 91.4191 16.5696 91.4191 19.3879C91.4191 22.3069 89.7452 24.018 87.1851 24.018C84.5265 24.018 82.9512 22.2063 82.9512 19.3879ZM89.5482 19.3879C89.5482 17.3749 88.6621 16.2677 87.1851 16.2677C85.7082 16.2677 84.822 17.3749 84.822 19.3879C84.822 21.4011 85.7082 22.5083 87.1851 22.5083C88.6621 22.5083 89.5482 21.3003 89.5482 19.3879Z" fill="black"/>
<path fill-rule="evenodd" clip-rule="evenodd" d="M92.8934 14.7586H94.6655V16.369C94.8622 15.3625 95.8477 14.6579 96.8321 14.7586C97.0288 14.7586 97.2255 14.7586 97.4232 14.8592V16.5704C97.1272 16.4697 96.9305 16.369 96.6355 16.369C96.1427 16.369 95.5516 16.5704 95.2566 16.9729C94.9616 17.3756 94.6655 17.9795 94.6655 18.4828V23.9182H92.7949L92.8934 14.7586Z" fill="black"/>
<path d="M105.894 21.2007C105.697 22.8112 104.023 24.0191 102.054 24.0191C99.4942 24.0191 97.8203 22.2073 97.8203 19.389C97.8203 16.5706 99.3959 14.6582 101.956 14.6582C104.418 14.6582 105.993 16.3693 105.993 19.1876V19.7916H99.6909V19.8922C99.5925 20.5968 99.8876 21.2007 100.282 21.704C100.774 22.2073 101.365 22.5092 102.054 22.4086C102.94 22.5092 103.826 22.0059 104.121 21.1001L105.894 21.2007ZM99.6909 18.483H104.121C104.121 17.8791 103.925 17.2752 103.531 16.8725C103.137 16.47 102.546 16.168 101.956 16.168C101.365 16.168 100.774 16.3693 100.38 16.8725C99.8876 17.2752 99.6909 17.8791 99.6909 18.483Z" fill="black"/>
<defs>
<linearGradient id="paint0_linear_100_7929" x1="1.7541" y1="-1.79445e-06" x2="90.8063" y2="42.3222" gradientUnits="userSpaceOnUse">
<stop stop-color="#EDD78F"/>
<stop offset="1" stop-color="#FDBF4A"/>
</linearGradient>
</defs>
</svg>
