<svg width="16" height="10" viewBox="0 0 16 10" fill="none" xmlns="http://www.w3.org/2000/svg">
<path d="M8.91358 5.00037C8.91358 7.76126 6.69462 10 3.95716 10C1.2197 10 -1 7.76126 -1 5.00037C-1 2.23947 1.21897 0 3.95716 0C6.69462 0 8.91358 2.23874 8.91358 5.00037ZM14.3519 5.00037C14.3519 7.59941 13.2417 9.70707 11.8729 9.70707C10.5042 9.70707 9.39473 7.59941 9.39473 5.00037C9.39473 2.40059 10.5042 0.292933 11.8729 0.292933C13.2424 0.292933 14.3512 2.39985 14.3512 5.00037H14.3519ZM16.576 5.00037C16.576 7.32845 16.1856 9.21714 15.7045 9.21714C15.2226 9.21714 14.833 7.32918 14.833 5.00037C14.833 2.67155 15.2226 0.782863 15.7045 0.782863C16.1856 0.782863 16.576 2.67082 16.576 5.00037Z" fill="white"/>
</svg>
