<svg width="16" height="16" viewBox="0 0 16 16" fill="none" xmlns="http://www.w3.org/2000/svg">
<path d="M5.6456 14C11.2172 14 14.2649 9.38332 14.2649 5.38072C14.2649 5.25089 14.2624 5.11798 14.2563 4.98815C14.8493 4.55936 15.361 4.02823 15.7675 3.41972C15.2149 3.66585 14.6291 3.82583 14.0286 3.89597C14.6607 3.51704 15.134 2.92176 15.3608 2.22048C14.7659 2.57277 14.1155 2.82122 13.4373 2.95516C12.9804 2.46942 12.3762 2.14776 11.7182 2.03993C11.0601 1.9321 10.3848 2.04411 9.79683 2.35863C9.20883 2.67316 8.74085 3.17267 8.46528 3.77991C8.18971 4.38715 8.12191 5.06826 8.27236 5.71791C7.06828 5.65748 5.89032 5.34471 4.81485 4.79987C3.73938 4.25504 2.7904 3.49029 2.02942 2.55521C1.6428 3.222 1.52451 4.01096 1.69857 4.76182C1.87263 5.51268 2.32598 6.16912 2.96653 6.5978C2.48567 6.58246 2.01534 6.45297 1.59439 6.22V6.25692C1.59383 6.95674 1.83565 7.63516 2.27874 8.17685C2.72182 8.71854 3.33883 9.09006 4.02487 9.22826C3.57932 9.35005 3.11174 9.36773 2.65826 9.27995C2.85185 9.88171 3.22845 10.408 3.73552 10.7855C4.24259 11.163 4.85484 11.3727 5.48685 11.3855C4.85818 11.8793 4.13826 12.2442 3.36832 12.4593C2.59838 12.6744 1.79357 12.7354 1 12.6389C2.38616 13.5283 3.99865 14.0008 5.6456 14Z" fill="white"/>
</svg>
